<svg id="Layer_1" data-name="Layer 1" xmlns="http://www.w3.org/2000/svg" viewBox="0 0 11.01 9.03"><defs><style>.cls-1{fill:#fff;}</style></defs><path class="cls-1" d="M58.42,31.5a.57.57,0,0,0,.06.79l3.86,3.83a.61.61,0,0,0,.82.15h0a.56.56,0,0,0,0-.85l-2.3-2.3-.1-.3.05-.4.41,0,.53.06q3.38,0,6.75,0a1.19,1.19,0,0,0,.56-.14l0,0a.52.52,0,0,0,.15-.51.55.55,0,0,0-.48-.43h-.29l-7,0-.25,0-.4-.19-.11-.22.13-.27.21-.22,2-2a.65.65,0,0,0,.21-.58.52.52,0,0,0-.3-.38.54.54,0,0,0-.63.08l-2.09,2.09Z" transform="translate(-58.29 -27.35)"/></svg>