<svg id="Layer_1" data-name="Layer 1" xmlns="http://www.w3.org/2000/svg" viewBox="0 0 21.65 20.68"><defs><style>.cls-1{fill:#fff;}</style></defs><path class="cls-1" d="M1046,1307.83l-6.31-6.32a.51.51,0,0,1-.18-.42V1292c0-.48-.14-.62-.62-.59a9.54,9.54,0,0,0-5.55,2.15,9.65,9.65,0,0,0-3.58,9.47,9.44,9.44,0,0,0,3.89,6.26,9.92,9.92,0,0,0,12.5-.62.44.44,0,0,0,0-.7Zm-9.57-1.08c-.23.08-.32.18-.28.41a.82.82,0,0,1,0,.27.61.61,0,0,1-1.21,0c0-.18,0-.37,0-.56a3.2,3.2,0,0,1-1.52-.86.62.62,0,0,1-.09-.92.6.6,0,0,1,.92,0,1.7,1.7,0,0,0,1.72.52,1.3,1.3,0,0,0,1-1.21,1.29,1.29,0,0,0-1.07-1.18c-.34-.07-.69-.06-1-.13a2.45,2.45,0,0,1-2-3,2.48,2.48,0,0,1,1.72-1.69c.21-.07.28-.16.25-.36a2.29,2.29,0,0,1,0-.37.61.61,0,0,1,.62-.56.56.56,0,0,1,.58.58c-.05.52.17.7.63.87a3.62,3.62,0,0,1,1.08.75.56.56,0,0,1,0,.87.62.62,0,0,1-.9-.09,1.85,1.85,0,0,0-1.66-.57,1.27,1.27,0,0,0-1.17,1.27,1.36,1.36,0,0,0,1.34,1.19,6.71,6.71,0,0,1,.9.12,2.5,2.5,0,0,1,1.93,2.32A2.46,2.46,0,0,1,1036.47,1306.75Z" transform="translate(-1029.65 -1290.57)"/><path class="cls-1" d="M1051.17,1299.61a.67.67,0,0,0,.11-.58,10,10,0,0,0-9.28-8.45.69.69,0,0,0-.58.12.8.8,0,0,0-.17.6v8.51h9.37A.66.66,0,0,0,1051.17,1299.61Z" transform="translate(-1029.65 -1290.57)"/><path class="cls-1" d="M1051.18,1301.56a.72.72,0,0,0-.56-.19H1042l.18.2.1.12q2.81,2.82,5.63,5.63a.66.66,0,0,0,.44.22h0a.63.63,0,0,0,.45-.26,10,10,0,0,0,2.45-5.13h0A.7.7,0,0,0,1051.18,1301.56Z" transform="translate(-1029.65 -1290.57)"/></svg>