<svg id="Layer_1" data-name="Layer 1" xmlns="http://www.w3.org/2000/svg" viewBox="0 0 13.59 13.59"><defs><style>.cls-1{fill:#b4b4b4;}</style></defs><path class="cls-1" d="M70.56,31.33a.52.52,0,0,1-.53.53.53.53,0,0,1-.53-.55V28.37a1,1,0,0,0-.6-1,1.09,1.09,0,0,0-.39-.11c-.25,0-.49,0-.76,0v.47a.53.53,0,0,1-.54.58.53.53,0,0,1-.52-.58v-.47H64.27v.47a.53.53,0,1,1-1.06,0v-.47H60.82v.48a.53.53,0,1,1-1.06,0v-.5a5.49,5.49,0,0,0-.91.05,1,1,0,0,0-.81,1c0,.24,0,.47,0,.71V36.5a1,1,0,0,0,.59,1,1.32,1.32,0,0,0,.55.11H63.1a.58.58,0,0,1,.45.17.51.51,0,0,1,.1.55.48.48,0,0,1-.44.33h-4.1a2.12,2.12,0,0,1-2-1.44C57,37.12,57,37,57,36.82V28.06L57,28a2.07,2.07,0,0,1,1-1.49,2.16,2.16,0,0,1,1.29-.32h.48c0-.15,0-.27,0-.4a.59.59,0,0,1,.43-.66h.21a.58.58,0,0,1,.42.66v.39h2.39c0-.14,0-.26,0-.39a.59.59,0,0,1,.43-.66h.21a.59.59,0,0,1,.43.66c0,.13,0,.26,0,.39h2.42c0-.14,0-.26,0-.39a.59.59,0,0,1,.42-.66h.22a.59.59,0,0,1,.42.66c0,.13,0,.25,0,.4h.65a2.06,2.06,0,0,1,1.64.74,2,2,0,0,1,.52,1.3C70.57,29.26,70.57,30.29,70.56,31.33Z" transform="translate(-56.97 -25.12)"/><path class="cls-1" d="M67.35,32.29a3.21,3.21,0,1,0,3.21,3.2A3.21,3.21,0,0,0,67.35,32.29Zm0,5.36a2.15,2.15,0,1,1,2.16-2.14A2.17,2.17,0,0,1,67.34,37.65Z" transform="translate(-56.97 -25.12)"/><path class="cls-1" d="M60.82,30.69a.53.53,0,0,1-.53.53.53.53,0,1,1,.53-.53Z" transform="translate(-56.97 -25.12)"/><path class="cls-1" d="M63.13,30.7a.53.53,0,0,1-.54.52.53.53,0,1,1,.54-.52Z" transform="translate(-56.97 -25.12)"/><path class="cls-1" d="M65.44,30.7a.53.53,0,0,1-1.06,0,.53.53,0,1,1,1.06,0Z" transform="translate(-56.97 -25.12)"/><path class="cls-1" d="M67.75,30.69a.53.53,0,1,1-1.06,0,.53.53,0,1,1,1.06,0Z" transform="translate(-56.97 -25.12)"/><path class="cls-1" d="M60.82,33a.53.53,0,1,1-.53-.53A.53.53,0,0,1,60.82,33Z" transform="translate(-56.97 -25.12)"/><path class="cls-1" d="M63.13,33a.53.53,0,1,1-.52-.53A.53.53,0,0,1,63.13,33Z" transform="translate(-56.97 -25.12)"/><path class="cls-1" d="M60.82,35.31a.53.53,0,1,1-.53-.53A.53.53,0,0,1,60.82,35.31Z" transform="translate(-56.97 -25.12)"/><path class="cls-1" d="M63.13,35.32a.53.53,0,0,1-.54.52.53.53,0,1,1,.54-.52Z" transform="translate(-56.97 -25.12)"/><path class="cls-1" d="M68.65,35.5a.52.52,0,0,1-.52.52h-.79a.51.51,0,0,1-.52-.51c0-.38,0-.75,0-1.12a.53.53,0,0,1,1,0c0,.18,0,.37,0,.58h.25A.52.52,0,0,1,68.65,35.5Z" transform="translate(-56.97 -25.12)"/></svg>