<svg id="Layer_1" data-name="Layer 1" xmlns="http://www.w3.org/2000/svg" viewBox="0 0 23.15 23.15"><defs><style>.cls-1{fill:#b4b4b4;}</style></defs><path class="cls-1" d="M54,51.91a.9.9,0,1,1-1.8,0c0-1.67,0-3.35,0-5a1.79,1.79,0,0,0-1-1.72,1.9,1.9,0,0,0-.67-.18c-.41,0-.84,0-1.29,0v.81a.91.91,0,1,1-1.81,0V45H43.26v.81a.91.91,0,1,1-1.81,0V45H37.38v.81a.9.9,0,0,1-.9,1,.92.92,0,0,1-.91-1v-.86A12.88,12.88,0,0,0,34,45a1.76,1.76,0,0,0-1.39,1.77c0,.4,0,.81,0,1.22V60.73a1.74,1.74,0,0,0,1,1.74,2.21,2.21,0,0,0,.94.2h6.67A1,1,0,0,1,42,63a.85.85,0,0,1,.17.92.88.88,0,0,1-.75.58h-7A3.6,3.6,0,0,1,31,62c-.08-.24-.13-.5-.19-.75V46.36s0-.08,0-.13a3.56,3.56,0,0,1,1.69-2.54,3.69,3.69,0,0,1,2.2-.54h.81c0-.25,0-.47,0-.68a1,1,0,0,1,.73-1.13h.36a1,1,0,0,1,.73,1.13c0,.22,0,.44,0,.66h4.07c0-.23,0-.45,0-.66a1,1,0,0,1,.72-1.13h.37a1,1,0,0,1,.72,1.13c0,.22,0,.44,0,.66h4.11c0-.23,0-.45,0-.66a1,1,0,0,1,.73-1.13h.36a1,1,0,0,1,.72,1.13c0,.21,0,.43,0,.68H50.3a3.57,3.57,0,0,1,2.79,1.25A3.35,3.35,0,0,1,54,46.62C54,48.39,54,50.15,54,51.91Z" transform="translate(-30.83 -41.34)"/><path class="cls-1" d="M48.51,53.55A5.47,5.47,0,1,0,54,59,5.49,5.49,0,0,0,48.51,53.55Zm0,9.13A3.67,3.67,0,1,1,52.17,59,3.69,3.69,0,0,1,48.48,62.68Z" transform="translate(-30.83 -41.34)"/><path class="cls-1" d="M37.38,50.82a.9.9,0,1,1-.92-.89A.91.91,0,0,1,37.38,50.82Z" transform="translate(-30.83 -41.34)"/><path class="cls-1" d="M41.31,50.85a.9.9,0,1,1-.89-.92A.9.9,0,0,1,41.31,50.85Z" transform="translate(-30.83 -41.34)"/><path class="cls-1" d="M45.25,50.85a.91.91,0,1,1-.9-.92A.92.92,0,0,1,45.25,50.85Z" transform="translate(-30.83 -41.34)"/><path class="cls-1" d="M49.18,50.83a.9.9,0,1,1-1.8,0,.9.9,0,1,1,1.8,0Z" transform="translate(-30.83 -41.34)"/><path class="cls-1" d="M37.38,54.77a.9.9,0,1,1-.91-.91A.91.91,0,0,1,37.38,54.77Z" transform="translate(-30.83 -41.34)"/><path class="cls-1" d="M41.31,54.77a.9.9,0,1,1-.88-.91A.91.91,0,0,1,41.31,54.77Z" transform="translate(-30.83 -41.34)"/><path class="cls-1" d="M37.38,58.7a.91.91,0,0,1-.91.9.9.9,0,1,1,.91-.9Z" transform="translate(-30.83 -41.34)"/><path class="cls-1" d="M41.31,58.71a.9.9,0,1,1-.9-.91A.9.9,0,0,1,41.31,58.71Z" transform="translate(-30.83 -41.34)"/><path class="cls-1" d="M50.72,59a.9.9,0,0,1-.89.9c-.45,0-.9,0-1.35,0A.87.87,0,0,1,47.6,59c0-.63,0-1.26,0-1.89a.88.88,0,0,1,.9-.88.89.89,0,0,1,.89.87c0,.31,0,.63,0,1h.42A.92.92,0,0,1,50.72,59Z" transform="translate(-30.83 -41.34)"/></svg>