<svg id="Layer_1" data-name="Layer 1" xmlns="http://www.w3.org/2000/svg" viewBox="0 0 8.41 8.42"><defs><style>.cls-1{fill:#bcbec0;}</style></defs><path class="cls-1" d="M66.86,33.72a1.52,1.52,0,0,0-1.29-.34c-.58.17-1,.68-1.64.68a1.82,1.82,0,0,1-1-.39,4.88,4.88,0,0,1-1.22-1.22,1.82,1.82,0,0,1-.38-1c0-.83.89-1.36.67-2.22a3,3,0,0,0-.47-.88c-.32-.43-1-1.25-1.53-.67-.74.77-.57,2.24-.31,3.16.79,2.71,4,5.81,7.12,4.9.54-.16,1.43-.53.91-1.22A4,4,0,0,0,66.86,33.72Z" transform="translate(-59.49 -27.52)"/></svg>