<svg id="Layer_1" data-name="Layer 1" xmlns="http://www.w3.org/2000/svg" viewBox="0 0 8.95 10.78"><defs><style>.cls-1{fill:#a7a9ac;}</style></defs><path class="cls-1" d="M66.47,29.27a2.45,2.45,0,0,0-1.91-2l-.3-.06-.61,0-.26.06a2.92,2.92,0,0,0-.42.13,2.5,2.5,0,0,0-1.5,2.66,2.36,2.36,0,0,0,1.56,2,2.65,2.65,0,0,0,1,.21,2.41,2.41,0,0,0,1.66-.69A2.37,2.37,0,0,0,66.47,29.27ZM64,31.63h0a1.87,1.87,0,0,1-1.31-.55,1.86,1.86,0,0,1,2.64-2.63,1.81,1.81,0,0,1,.54,1.32A1.84,1.84,0,0,1,64,31.63Z" transform="translate(-59.58 -27.23)"/><path class="cls-1" d="M68.46,35.16A4.23,4.23,0,0,0,68,33.64a1.94,1.94,0,0,0-1.33-1,1.47,1.47,0,0,0-.33,0,.78.78,0,0,0-.52.18,2.5,2.5,0,0,1-.38.25,2.67,2.67,0,0,1-1.2.4h-.18A2.75,2.75,0,0,1,62.61,33l-.18-.12a2.82,2.82,0,0,0-.29-.18.61.61,0,0,0-.33-.1,1.87,1.87,0,0,0-.89.23A2.11,2.11,0,0,0,60,34a5.69,5.69,0,0,0-.36,2.62,1.47,1.47,0,0,0,.52,1A1.67,1.67,0,0,0,61.3,38h5.37a2.63,2.63,0,0,0,.49,0,1.63,1.63,0,0,0,1.37-1.62A11.87,11.87,0,0,0,68.46,35.16Zm-1.71,2.17h-5.3a1.45,1.45,0,0,1-.65-.13.92.92,0,0,1-.54-.88,5.17,5.17,0,0,1,.32-2.13,1.48,1.48,0,0,1,.67-.82,1.34,1.34,0,0,1,.37-.12l.12,0a.29.29,0,0,1,.16.06,4.68,4.68,0,0,0,1.11.59,3.22,3.22,0,0,0,1.05.18,3.39,3.39,0,0,0,1.74-.51,2.36,2.36,0,0,0,.35-.23.32.32,0,0,1,.23-.08.72.72,0,0,1,.19,0,1.32,1.32,0,0,1,.84.7,3.77,3.77,0,0,1,.38,1.29,7.3,7.3,0,0,1,.06.94A1,1,0,0,1,66.75,37.33Z" transform="translate(-59.58 -27.23)"/></svg>