<svg id="Layer_1" data-name="Layer 1" xmlns="http://www.w3.org/2000/svg" viewBox="0 0 11.64 8.5"><path class="cls-1" d="M43.34,48.57h0Z" transform="translate(-36.58 -48.57)"/><path class="cls-1" d="M48,55.09V53.18a.44.44,0,0,0,0-.1c-.14-.5-.28-1-.43-1.51a1.1,1.1,0,0,0-1.06-.82H44.11V49.33a.72.72,0,0,0-.56-.74l-.07,0h-6.1a.71.71,0,0,0-.77.53l0,0v6.79h1.51a1.25,1.25,0,0,0,.17.58,1.16,1.16,0,0,0,1.85.19,1.25,1.25,0,0,0,.31-.77h4.49a1.19,1.19,0,0,0,1.16,1.15,1.13,1.13,0,0,0,1-.59,1.25,1.25,0,0,0,.16-.57h.15a7.85,7.85,0,0,1,.84,0v-.84Zm-8.78,1.28a.46.46,0,1,1,0-.92.46.46,0,1,1,0,.92Zm6.81,0a.47.47,0,0,1-.46-.47.47.47,0,0,1,.93,0A.48.48,0,0,1,46.07,56.37Zm1.3-3.24H44.74c-.07,0-.1,0-.1-.1V51.38s0-.08,0-.08h1.84a.51.51,0,0,1,.52.37c.15.47.28.95.41,1.42C47.45,53.15,47.4,53.13,47.37,53.13Z" transform="translate(-36.58 -48.57)"/></svg>