<svg id="Layer_1" data-name="Layer 1" xmlns="http://www.w3.org/2000/svg" viewBox="0 0 11.46 8.37"><defs><style>.cls-1{fill:#a7a9ac;}</style></defs><path class="cls-1" d="M64.7,27.64h0Z" transform="translate(-58.04 -27.63)"/><path class="cls-1" d="M69.32,34.05V32.18a.36.36,0,0,0,0-.1c-.14-.49-.28-1-.43-1.49a1.09,1.09,0,0,0-1-.81H65.45V28.39a.73.73,0,0,0-.55-.74H58.83a.72.72,0,0,0-.77.52.05.05,0,0,1,0,0v6.68h1.48a1.45,1.45,0,0,0,.17.57,1.14,1.14,0,0,0,1.83.19,1.27,1.27,0,0,0,.3-.76h4.42a1.16,1.16,0,0,0,.15.55,1.14,1.14,0,0,0,2,0,1.45,1.45,0,0,0,.17-.56h.14c.28,0,.55,0,.82,0v-.83A.54.54,0,0,1,69.32,34.05Zm-8.65,1.27a.46.46,0,0,1-.45-.46.45.45,0,0,1,.45-.45.47.47,0,0,1,.46.45A.47.47,0,0,1,60.67,35.32Zm6.71,0a.46.46,0,1,1,0-.91.46.46,0,1,1,0,.91Zm1.28-3.2H66.07c-.07,0-.1,0-.1-.11V30.41s0-.08,0-.09h1.81a.51.51,0,0,1,.52.37c.14.46.27.93.4,1.39C68.74,32.15,68.69,32.12,68.66,32.12Z" transform="translate(-58.04 -27.63)"/></svg>