<svg id="Layer_1" data-name="Layer 1" xmlns="http://www.w3.org/2000/svg" viewBox="0 0 12.49 12.49"><defs><style>.cls-1{fill:#fff;}</style></defs><path class="cls-1" d="M69.54,27.66c-.51-.5-1-1-1.52-1.52a1.65,1.65,0,0,0-.74-.51h-.34a1.53,1.53,0,0,0-.72.48L60.43,31.9,58.2,34.13a1,1,0,0,0-.31.56c0,.14,0,.27,0,.4-.09.66-.16,1.32-.26,2a.9.9,0,0,0,1,1c.65-.1,1.31-.19,2-.26a1.7,1.7,0,0,0,1.14-.54q3.9-3.93,7.83-7.83a1.72,1.72,0,0,0,.49-.73v-.34A1.7,1.7,0,0,0,69.54,27.66Zm-3,3.13-5.68,5.67a.47.47,0,0,1-.31.16l-1.57.2h-.12c0-.18,0-.36.07-.53,0-.41.1-.82.16-1.23a.3.3,0,0,1,.06-.14C61.08,33,63,31,65,29.09h0l1.63,1.63Zm1-1c-.53-.52-1.06-1.06-1.59-1.59L67.1,27c.53.53,1.07,1.06,1.59,1.59Z" transform="translate(-57.57 -25.63)"/></svg>