<svg id="Layer_1" data-name="Layer 1" xmlns="http://www.w3.org/2000/svg" viewBox="0 0 11.39 11.49"><defs><style>.cls-1{fill:#a7a9ac;}</style></defs><path class="cls-1" d="M64,37.66a5.73,5.73,0,0,1-1.13-11.34,9.64,9.64,0,0,1,1.08-.12.39.39,0,0,1,.44.38.38.38,0,0,1-.43.41,4.93,4.93,0,1,0,4.86,5.77,7.53,7.53,0,0,0,.07-.83.4.4,0,0,1,.52-.38.38.38,0,0,1,.28.4,5.73,5.73,0,0,1-4.92,5.65,2.06,2.06,0,0,1-.26,0Z" transform="translate(-58.27 -26.17)"/><path class="cls-1" d="M64.34,30.4v.92c0,.25,0,.24.22.35a2.55,2.55,0,0,1,.46.25,1.08,1.08,0,0,1,.51,1.18,1.22,1.22,0,0,1-.94,1c-.08,0-.2,0-.24.07s0,.17,0,.26,0,.22,0,.33a.34.34,0,0,1-.35.32.35.35,0,0,1-.35-.33v-.61c-.14-.05-.28-.08-.41-.14a1.72,1.72,0,0,1-.76-.6.35.35,0,0,1,0-.5A.34.34,0,0,1,63,33a1.52,1.52,0,0,0,.63.45V32.16a.16.16,0,0,0-.09-.15,3.1,3.1,0,0,1-.5-.29,1,1,0,0,1-.44-1.1,1.16,1.16,0,0,1,.85-.92l.18,0v-.53c0-.25.14-.41.35-.4s.35.15.36.4,0,.27,0,.41,0,.13.13.15a1.42,1.42,0,0,1,.86.58.35.35,0,0,1,0,.5.33.33,0,0,1-.48-.07c-.13-.12-.28-.22-.42-.34Zm0,2v1a.5.5,0,0,0,.45-.46A.57.57,0,0,0,64.34,32.38Zm-.72-2a.41.41,0,0,0-.28.42.43.43,0,0,0,.28.41Z" transform="translate(-58.27 -26.17)"/><path class="cls-1" d="M68.81,27.54s0,.09-.08.12c-.71.72-1.42,1.44-2.14,2.15a.61.61,0,0,1-.28.16.34.34,0,0,1-.39-.18.38.38,0,0,1,0-.44l.1-.11,2.12-2.14.11-.09v0h-.13c-.41,0-.83,0-1.24,0a.4.4,0,0,1-.41-.53.39.39,0,0,1,.36-.27h2.44a.4.4,0,0,1,.38.42c0,.78,0,1.56,0,2.34a.41.41,0,0,1-.34.45.39.39,0,0,1-.45-.4v-1.4Z" transform="translate(-58.27 -26.17)"/></svg>