<svg id="Layer_1" data-name="Layer 1" xmlns="http://www.w3.org/2000/svg" viewBox="0 0 19.4 19.57"><path class="cls-1" d="M46.25,49.53a.73.73,0,0,0-.66.09.86.86,0,0,0-.37.67l0,.42c0,.32,0,.64-.09,1a8.08,8.08,0,0,1-14.8,3,8.17,8.17,0,0,1-1.05-6.47,8.07,8.07,0,0,1,7.8-6.12.91.91,0,0,0,.64-.26.73.73,0,0,0,.2-.56.76.76,0,0,0-.25-.57.82.82,0,0,0-.63-.2l-.24,0a14.15,14.15,0,0,0-1.58.18,9.77,9.77,0,0,0,1.92,19.33h0l.27,0L38,60l.44,0a9.62,9.62,0,0,0,7.41-5.45,9.26,9.26,0,0,0,1-4.17A.79.79,0,0,0,46.25,49.53Z" transform="translate(-27.4 -40.48)"/><path class="cls-1" d="M37.85,46.28a4.86,4.86,0,0,0,0-.54v-.15a.72.72,0,0,0-.71-.81h0a.74.74,0,0,0-.72.81v.78h0l-.2,0a2.09,2.09,0,0,0-1.53,1.63,1.86,1.86,0,0,0,.79,2,5.4,5.4,0,0,0,.77.46l.09,0c.08,0,.09.06.09.13,0,.25,0,.49,0,.74v1.18a2.26,2.26,0,0,1-.83-.64.7.7,0,1,0-1.1.87,3,3,0,0,0,1.32,1.06l.48.16.13.05v.56c0,.12,0,.25,0,.38a.73.73,0,0,0,.7.68h0a.71.71,0,0,0,.71-.67c0-.12,0-.24,0-.36v-.34c0-.08,0-.19,0-.22a.53.53,0,0,1,.16,0,.47.47,0,0,0,.17,0,2.22,2.22,0,0,0,1.68-1.77,2,2,0,0,0-.93-2.11,5.12,5.12,0,0,0-.8-.44c-.29-.13-.29-.13-.29-.47V47.85l.1.08a5.71,5.71,0,0,1,.47.39.7.7,0,0,0,1,.12.71.71,0,0,0,.09-1,2.57,2.57,0,0,0-1.52-1C37.84,46.38,37.84,46.36,37.85,46.28Zm0,6.36v-1.4a.76.76,0,0,1,.51.76A.74.74,0,0,1,37.85,52.64ZM36.4,48v1a.62.62,0,0,1-.21-.48A.54.54,0,0,1,36.4,48Z" transform="translate(-27.4 -40.48)"/><path class="cls-1" d="M40.91,47.15a.57.57,0,0,0,.18,0,1.19,1.19,0,0,0,.52-.3q1.81-1.8,3.6-3.62v2.13a.83.83,0,0,0,.27.61.79.79,0,0,0,.63.19.8.8,0,0,0,.68-.88c0-1.31,0-2.63,0-3.94a.79.79,0,0,0-.76-.82q-2.05,0-4.11,0a.8.8,0,0,0-.63,1.24.85.85,0,0,0,.71.35h2.06l-3.57,3.59,0,0a1.54,1.54,0,0,0-.17.19.79.79,0,0,0,0,.87A.75.75,0,0,0,40.91,47.15Z" transform="translate(-27.4 -40.48)"/></svg>