<svg id="Layer_1" data-name="Layer 1" xmlns="http://www.w3.org/2000/svg" viewBox="0 0 7.91 13.3"><defs><style>.cls-1{fill:#a7a9ac;}</style></defs><path class="cls-1" d="M68,38.22v.38a2,2,0,0,1-.36.49,1,1,0,0,1-.56.17c-2,0-4,0-6.06,0a.86.86,0,0,1-.89-1.12c.44-1.69.88-3.38,1.34-5.06a2.68,2.68,0,0,1,5.17.06q.67,2.49,1.33,5A.15.15,0,0,0,68,38.22Z" transform="translate(-60.14 -25.97)"/><path class="cls-1" d="M66.17,28A2.08,2.08,0,1,1,64.08,26,2.08,2.08,0,0,1,66.17,28Z" transform="translate(-60.14 -25.97)"/></svg>