<svg id="Layer_1" data-name="Layer 1" xmlns="http://www.w3.org/2000/svg" viewBox="0 0 17.44 17.45"><defs><style>.cls-1{fill:#fff;}</style></defs><path class="cls-1" d="M1048.74,1316.25h-3.14a.59.59,0,0,1-.4-.65v-3.89a.87.87,0,0,0-.94-.94h-1.44a.88.88,0,0,0-1,1c0,1.29,0,2.57,0,3.86a.6.6,0,0,1-.4.65h-3.14l0,0a1.9,1.9,0,0,1-1.6-2c0-1.64,0-3.29,0-4.93v-.19h-.31a1.56,1.56,0,0,1-1.38-.87,4.09,4.09,0,0,1-.18-.49v-.48a2.41,2.41,0,0,1,.79-1.22l6.71-6.7a1.6,1.6,0,0,1,2.45,0l6.94,6.93a1.54,1.54,0,0,1,.17.19,1.6,1.6,0,0,1-.92,2.61,5.07,5.07,0,0,1-.56.05v.21c0,1.69,0,3.38,0,5.07a1.85,1.85,0,0,1-1.34,1.74Z" transform="translate(-1034.8 -1298.8)"/></svg>