<svg id="Layer_1" data-name="Layer 1" xmlns="http://www.w3.org/2000/svg" viewBox="0 0 17.16 17.16"><defs><style>.cls-1{fill:#384a53;}</style></defs><path class="cls-1" d="M68.84,23.34H58.71a3.52,3.52,0,0,0-3.52,3.51V37a3.52,3.52,0,0,0,3.52,3.51H68.84A3.51,3.51,0,0,0,72.35,37V26.85A3.51,3.51,0,0,0,68.84,23.34Zm-9,13.58a.94.94,0,0,1-1.87,0V30.35a.94.94,0,1,1,1.87,0Zm4.89,0a.94.94,0,0,1-1.87,0v-10a.94.94,0,0,1,1.87,0Zm4.88,0a.94.94,0,0,1-1.87,0V34.5a.94.94,0,1,1,1.87,0Z" transform="translate(-55.19 -23.34)"/></svg>