<svg id="Layer_1" data-name="Layer 1" xmlns="http://www.w3.org/2000/svg" viewBox="0 0 11.39 11.49"><defs><style>.cls-1{fill:#a7a9ac;}</style></defs><path class="cls-1" d="M64,37.68a5.73,5.73,0,0,1-1.13-11.35,9.46,9.46,0,0,1,1.07-.12.4.4,0,1,1,0,.8,4.92,4.92,0,1,0,4.86,5.76,7.56,7.56,0,0,0,.07-.82.4.4,0,0,1,.52-.39.4.4,0,0,1,.27.41,5.34,5.34,0,0,1-.56,2.45,5.63,5.63,0,0,1-4.35,3.2l-.26,0Z" transform="translate(-58.26 -26.19)"/><path class="cls-1" d="M64.32,30.41v.92c0,.25,0,.25.23.35a3.25,3.25,0,0,1,.45.25,1.09,1.09,0,0,1,.52,1.18,1.23,1.23,0,0,1-.94,1c-.08,0-.2,0-.24.06s0,.18,0,.27,0,.21,0,.32a.35.35,0,0,1-.7,0c0-.1,0-.2,0-.31v-.29L63.21,34a1.68,1.68,0,0,1-.76-.61A.34.34,0,1,1,63,33a1.38,1.38,0,0,0,.63.44v-.64c0-.2,0-.41,0-.61a.13.13,0,0,0-.1-.14,5,5,0,0,1-.5-.29,1.05,1.05,0,0,1-.44-1.11,1.18,1.18,0,0,1,.86-.91l.18,0v-.52c0-.25.14-.41.35-.41s.35.16.35.41,0,.27,0,.4,0,.13.12.15a1.48,1.48,0,0,1,.86.58.35.35,0,0,1,0,.5.35.35,0,0,1-.49-.06,4.62,4.62,0,0,0-.41-.34Zm0,2v1a.49.49,0,0,0,.45-.46A.55.55,0,0,0,64.32,32.4Zm-.71-2a.4.4,0,0,0-.28.42.43.43,0,0,0,.28.4Z" transform="translate(-58.26 -26.19)"/><path class="cls-1" d="M66.7,28.63a.75.75,0,0,1,.07-.12l2.14-2.15a.66.66,0,0,1,.28-.16.35.35,0,0,1,.4.18.39.39,0,0,1,0,.44.57.57,0,0,1-.11.11c-.7.72-1.41,1.43-2.12,2.14l-.1.09v0h1.37a.4.4,0,0,1,.4.53.38.38,0,0,1-.36.27H66.22a.39.39,0,0,1-.37-.42c0-.78,0-1.56,0-2.34a.41.41,0,0,1,.34-.45.4.4,0,0,1,.45.4V28.6Z" transform="translate(-58.26 -26.19)"/></svg>