<svg id="Layer_1" data-name="Layer 1" xmlns="http://www.w3.org/2000/svg" viewBox="0 0 96.03 1123.91"><defs><style>.cls-1{fill:#384a53;}</style></defs><path class="cls-1" d="M1658.56,4558.71a3.51,3.51,0,0,0-3.32-2.36h-10.12a3.51,3.51,0,0,0-3.32,2.36,3.39,3.39,0,0,0-.2,1.15V4570a3.41,3.41,0,0,0,.2,1.16,3.51,3.51,0,0,0,3.32,2.36h10.12a3.51,3.51,0,0,0,3.32-2.36,3.41,3.41,0,0,0,.2-1.16v-10.13A3.39,3.39,0,0,0,1658.56,4558.71Zm-9,12.09a.45.45,0,0,1,0,.2.11.11,0,0,1,0,.08,1.54,1.54,0,0,1-1.44,1.18h-1.28c-.59,0-1.1,0-1.52,0h-.91a1.56,1.56,0,0,1-1.5-1.5v-.42c-.06-.76,0-1.82,0-3.28V4567a1.47,1.47,0,0,1,1.43-1.44q1.92,0,3.84,0a1.4,1.4,0,0,1,1.06.54,1.39,1.39,0,0,1,.32.64.73.73,0,0,1,0,.25c0,.63,0,1.27,0,1.91h0C1649.59,4569,1649.6,4570.8,1649.58,4570.8Zm0-9.82h0v.53c0,.45,0,.9,0,1.35a.86.86,0,0,1,0,.28,1.49,1.49,0,0,1-.32.64,1.4,1.4,0,0,1-1.06.54q-1.92,0-3.84,0a1.47,1.47,0,0,1-1.43-1.44v-.08c0-1.46-.06-2.52,0-3.28v-.42a1.56,1.56,0,0,1,1.5-1.5h.91c.42,0,.93,0,1.52,0h1.28a1.54,1.54,0,0,1,1.44,1.18.11.11,0,0,1,0,.08.45.45,0,0,1,0,.2S1649.59,4560.91,1649.59,4561Zm7.21,8.44a.94.94,0,0,1-.43.12h-1.57v1.64a.64.64,0,1,1-1.27,0V4571c0-.46,0-1,0-1.48h-1.58a.64.64,0,0,1-.68-.65.65.65,0,0,1,.69-.63h1.57v-1.6a.65.65,0,0,1,.64-.66.64.64,0,0,1,.59.41,1.08,1.08,0,0,1,0,.34c0,.49,0,1.33,0,1.51h1.63a.64.64,0,0,1,.61.46A.61.61,0,0,1,1656.8,4569.42Zm.72-6.6a1.55,1.55,0,0,1-1.45,1.5c-1.26,0-2.56,0-3.82,0a1.52,1.52,0,0,1-1.43-1.43c0-1.27,0-2.56,0-3.83.22-2.26,3.62-1.21,5.19-1.43a1.55,1.55,0,0,1,1.51,1.5Z" transform="translate(-1641.6 -3449.6)"/><path class="cls-1" d="M1648.36,4567.14v3.48a.35.35,0,0,1-.39.4h-3.48a.36.36,0,0,1-.39-.4v-3.48a.35.35,0,0,1,.38-.39h3.5A.34.34,0,0,1,1648.36,4567.14Z" transform="translate(-1641.6 -3449.6)"/><path class="cls-1" d="M1648.36,4559.23v3.46a.34.34,0,0,1-.39.39h-3.48a.34.34,0,0,1-.39-.39v-3.46a.36.36,0,0,1,.4-.41H1648A.36.36,0,0,1,1648.36,4559.23Z" transform="translate(-1641.6 -3449.6)"/><path class="cls-1" d="M1656.3,4559.24v3.48a.36.36,0,0,1-.4.39h-3.48a.38.38,0,0,1-.38-.39v-3.49a.35.35,0,0,1,.38-.39h3.48A.36.36,0,0,1,1656.3,4559.24Z" transform="translate(-1641.6 -3449.6)"/><path class="cls-1" d="M1737.43,3452a3.51,3.51,0,0,0-3.32-2.36H1724a3.51,3.51,0,0,0-3.32,2.36,3.39,3.39,0,0,0-.2,1.15v10.13a3.41,3.41,0,0,0,.2,1.16,3.51,3.51,0,0,0,3.32,2.36h10.12a3.51,3.51,0,0,0,3.32-2.36,3.41,3.41,0,0,0,.2-1.16v-10.13A3.39,3.39,0,0,0,1737.43,3452Zm-9,12.09a.45.45,0,0,1,0,.2.11.11,0,0,1,0,.08,1.54,1.54,0,0,1-1.44,1.18h-3.71a1.56,1.56,0,0,1-1.5-1.5v-.42c-.06-.76,0-1.82,0-3.28v-.08a1.47,1.47,0,0,1,1.43-1.44q1.92,0,3.84,0a1.4,1.4,0,0,1,1.06.54,1.39,1.39,0,0,1,.32.64.73.73,0,0,1,0,.25c0,.63,0,1.27,0,1.91h0C1728.46,3462.2,1728.47,3464.05,1728.45,3464.05Zm0-9.82h0v.53c0,.45,0,.9,0,1.35a.86.86,0,0,1,0,.28,1.49,1.49,0,0,1-.32.64,1.4,1.4,0,0,1-1.06.54q-1.92,0-3.84,0a1.47,1.47,0,0,1-1.43-1.44v-.08c0-1.46-.06-2.52,0-3.28v-.42a1.56,1.56,0,0,1,1.5-1.5H1727a1.54,1.54,0,0,1,1.44,1.18.11.11,0,0,1,0,.08.45.45,0,0,1,0,.2S1728.46,3454.16,1728.46,3454.23Zm7.21,8.44a.94.94,0,0,1-.43.12h-1.57v1.64a.64.64,0,1,1-1.27,0v-.12c0-.46,0-1,0-1.48h-1.58a.64.64,0,0,1-.68-.65.65.65,0,0,1,.69-.63h1.57v-1.6a.65.65,0,0,1,.64-.66.64.64,0,0,1,.59.41,1.08,1.08,0,0,1,0,.34c0,.49,0,1.33,0,1.51h1.63a.64.64,0,0,1,.61.46A.61.61,0,0,1,1735.67,3462.67Zm.72-6.6a1.55,1.55,0,0,1-1.45,1.5h-3.82a1.52,1.52,0,0,1-1.43-1.43c0-1.27,0-2.56,0-3.83.22-2.26,3.62-1.21,5.19-1.43a1.55,1.55,0,0,1,1.51,1.5Z" transform="translate(-1641.6 -3449.6)"/><path class="cls-1" d="M1727.23,3460.39v3.48a.35.35,0,0,1-.39.4h-3.48a.36.36,0,0,1-.39-.4v-3.48a.35.35,0,0,1,.38-.39h3.5A.34.34,0,0,1,1727.23,3460.39Z" transform="translate(-1641.6 -3449.6)"/><path class="cls-1" d="M1727.23,3452.48v3.46a.34.34,0,0,1-.39.39h-3.48a.34.34,0,0,1-.39-.39v-3.46a.36.36,0,0,1,.4-.41h3.46A.36.36,0,0,1,1727.23,3452.48Z" transform="translate(-1641.6 -3449.6)"/><path class="cls-1" d="M1735.17,3452.49V3456a.36.36,0,0,1-.4.39h-3.48a.38.38,0,0,1-.38-.39v-3.49a.35.35,0,0,1,.38-.39h3.48A.36.36,0,0,1,1735.17,3452.49Z" transform="translate(-1641.6 -3449.6)"/></svg>