<svg id="Layer_1" data-name="Layer 1" xmlns="http://www.w3.org/2000/svg" viewBox="0 0 18.87 22.13"><path class="cls-1" d="M53.7,60.53c-.08-1.88-.15-3.75-.23-5.63-.1-2.29-.19-4.57-.29-6.86,0-.74-.06-1.49-.09-2.27h-3c0-.46,0-.9,0-1.33a3.32,3.32,0,0,0-2-2.94,3.25,3.25,0,0,0-3.53.42,3.37,3.37,0,0,0-1.35,2.74c0,.37,0,.73,0,1.12h-3c-.07,1.62-.14,3.21-.2,4.82H35V63c0,.09,0,.19,0,.28H53.83C53.78,62.37,53.74,61.45,53.7,60.53ZM45.36,42.91a2.16,2.16,0,0,1,3.45,1.61c0,.4,0,.81,0,1.24H44.51A2.75,2.75,0,0,1,45.36,42.91Zm-6.29,9h3.48c0,.29,0,.59,0,.88a5.65,5.65,0,0,1-.06,1,1.71,1.71,0,0,1-1.9,1.34,1.76,1.76,0,0,1-1.52-1.69C39.06,52.94,39.07,52.43,39.07,51.9ZM45.35,62H36.26V51.9h1.52c0,.47,0,.94,0,1.4a4.43,4.43,0,0,0,.12,1,3,3,0,0,0,5.92-.83c0-.5,0-1,0-1.52h1.51Zm-4-11.37c0-1.19.09-2.35.14-3.52h1.73v1.18h1.29V47.08h4.11c.21,0,.26.07.25.26s0,.62,0,1h1.29V47.08h1.73c.17,4.06.34,8.11.51,12.19h-5.7V50.61ZM52.42,62H46.66V60.6h5.76Z" transform="translate(-34.95 -41.16)"/></svg>