<svg id="Layer_1" data-name="Layer 1" xmlns="http://www.w3.org/2000/svg" viewBox="0 0 17.16 17.16"><defs><style>.cls-1{fill:#384a53;}</style></defs><path class="cls-1" d="M72.15,25.7A3.51,3.51,0,0,0,70,23.53a3.73,3.73,0,0,0-1.17-.19H58.71a3.73,3.73,0,0,0-1.17.19,3.51,3.51,0,0,0-2.15,2.17,3.39,3.39,0,0,0-.2,1.15V37a3.41,3.41,0,0,0,.2,1.16,3.47,3.47,0,0,0,3.32,2.35H68.83a3.47,3.47,0,0,0,3.32-2.35,3.41,3.41,0,0,0,.2-1.16V26.85A3.39,3.39,0,0,0,72.15,25.7Zm-9,12.08a.46.46,0,0,1,0,.21.11.11,0,0,1,0,.08,1.52,1.52,0,0,1-1.44,1.17H60.4c-.59,0-1.1,0-1.52,0H58a1.55,1.55,0,0,1-1.5-1.5v-.41c-.06-.76,0-1.82,0-3.28V34a1.47,1.47,0,0,1,1.43-1.44q1.92,0,3.84,0a1.54,1.54,0,0,1,1.38,1.17.77.77,0,0,1,0,.25c0,.64,0,1.28,0,1.92h0C63.18,35.94,63.19,37.78,63.17,37.78Zm0-9.81h0v.52c0,.46,0,.91,0,1.36a.9.9,0,0,1,0,.28,1.4,1.4,0,0,1-.32.63,1.38,1.38,0,0,1-1.06.55q-1.92,0-3.84,0a1.48,1.48,0,0,1-1.43-1.44v-.09c0-1.45-.06-2.52,0-3.27v-.42a1.56,1.56,0,0,1,1.5-1.5h.91c.42,0,.93,0,1.52,0h1.28a1.54,1.54,0,0,1,1.44,1.17.13.13,0,0,1,0,.09.45.45,0,0,1,0,.2S63.18,27.9,63.18,28Zm7.21,8.44a1.09,1.09,0,0,1-.43.12H68.39v1.64a.64.64,0,1,1-1.27,0V38c0-.46,0-1,0-1.48H65.53a.64.64,0,0,1-.68-.65.66.66,0,0,1,.69-.64h1.57V33.65a.64.64,0,0,1,1.23-.25,1.08,1.08,0,0,1,0,.34c0,.49,0,1.33,0,1.5H70a.67.67,0,0,1,.61.46A.62.62,0,0,1,70.39,36.41Zm.72-6.6a1.55,1.55,0,0,1-1.45,1.5c-1.26,0-2.56,0-3.82,0a1.52,1.52,0,0,1-1.43-1.43c0-1.27,0-2.56,0-3.83.22-2.27,3.62-1.21,5.19-1.43a1.55,1.55,0,0,1,1.51,1.5Z" transform="translate(-55.19 -23.34)"/><path class="cls-1" d="M62,34.13v3.48a.35.35,0,0,1-.39.4H58.08a.36.36,0,0,1-.39-.4V34.13a.35.35,0,0,1,.38-.39h3.5A.34.34,0,0,1,62,34.13Z" transform="translate(-55.19 -23.34)"/><path class="cls-1" d="M62,26.22v3.46a.34.34,0,0,1-.39.39H58.08a.34.34,0,0,1-.39-.39V26.22a.36.36,0,0,1,.4-.41h3.46A.36.36,0,0,1,62,26.22Z" transform="translate(-55.19 -23.34)"/><path class="cls-1" d="M69.89,26.23V29.7a.36.36,0,0,1-.4.4H66a.38.38,0,0,1-.38-.4V26.22a.35.35,0,0,1,.38-.39h3.48A.36.36,0,0,1,69.89,26.23Z" transform="translate(-55.19 -23.34)"/></svg>