<svg id="Layer_1" data-name="Layer 1" xmlns="http://www.w3.org/2000/svg" viewBox="0 0 9.86 7.9"><defs><style>.cls-1{fill:#fff;}</style></defs><path class="cls-1" d="M68.74,32a.49.49,0,0,1-.43.44H59.46a.74.74,0,0,1-.26,0,.49.49,0,0,1-.32-.54.48.48,0,0,1,.45-.4H68.2A.49.49,0,0,1,68.74,32Z" transform="translate(-58.87 -27.97)"/><path class="cls-1" d="M66.27,28.52a.48.48,0,0,1-.46.43c-.15,0-.3,0-.44,0h-2.8c-1.06,0-2.12,0-3.18,0a.49.49,0,0,1-.48-.66.47.47,0,0,1,.42-.32H65.7a.66.66,0,0,1,.24,0A.48.48,0,0,1,66.27,28.52Z" transform="translate(-58.87 -27.97)"/><path class="cls-1" d="M64.18,35.69a.53.53,0,0,1-.43.17H59.38a.49.49,0,0,1-.48-.34.47.47,0,0,1,.16-.53.63.63,0,0,1,.35-.11H63.8a.5.5,0,0,1,.38.82Z" transform="translate(-58.87 -27.97)"/></svg>