<svg id="Layer_1" data-name="Layer 1" xmlns="http://www.w3.org/2000/svg" viewBox="0 0 9.8 12.45"><defs><style>.cls-1{fill:#a7a9ac;}</style></defs><path class="cls-1" d="M68.63,35.9c0-.45-.08-.91-.11-1.37l-.21-2.6c-.07-1-.16-1.94-.23-2.92a.89.89,0,0,0-.91-.87h-1a.41.41,0,0,1,0-.1,2.38,2.38,0,0,0-1.62-2.22,4.56,4.56,0,0,0-.53-.13h-.48l-.1,0a2.42,2.42,0,0,0-2,1.75c0,.22-.07.45-.11.68h-1a.88.88,0,0,0-.91.87c0,.55-.09,1.09-.13,1.64l-.21,2.62-.18,2.32a2.86,2.86,0,0,0,0,1,2,2,0,0,0,2,1.53h3.19c.88,0,1.75,0,2.63,0A2,2,0,0,0,68.63,35.9Zm-5.82-9.2a1.59,1.59,0,0,1,1.76-.05,1.62,1.62,0,0,1,.83,1.49H62.07A1.64,1.64,0,0,1,62.81,26.7Zm3.78,10.7H60.87a1.3,1.3,0,0,1-1.31-1.47c.08-.89.15-1.78.22-2.67s.15-1.94.23-2.91c0-.43.07-.86.1-1.29,0-.15,0-.19.19-.19h1v.88a.37.37,0,0,0,.37.38.36.36,0,0,0,.36-.38v-.87H65.4v.88a.35.35,0,0,0,.24.35A.33.33,0,0,0,66,30a.66.66,0,0,0,.09-.28c0-.27,0-.55,0-.84h1c.14,0,.19,0,.2.18.09,1.13.17,2.26.26,3.39s.19,2.34.28,3.51A1.29,1.29,0,0,1,66.59,37.4Z" transform="translate(-58.84 -25.69)"/><path class="cls-1" d="M65.34,32.41l-1.83,1.83a.35.35,0,0,1-.55,0l-.84-.85a.36.36,0,0,1,0-.54.37.37,0,0,1,.53,0l.6.61.43-.44,1.15-1.16a.37.37,0,1,1,.52.51Z" transform="translate(-58.84 -25.69)"/></svg>