<svg id="Layer_1" data-name="Layer 1" xmlns="http://www.w3.org/2000/svg" viewBox="0 0 17.15 21.72"><defs><style>.cls-1{fill:#fff;stroke:#fff;stroke-miterlimit:10;stroke-width:0.25px;}</style></defs><path class="cls-1" d="M48,59.36c-.08-.78-.14-1.57-.2-2.35-.11-1.5-.23-3-.35-4.49-.13-1.68-.27-3.36-.4-5A1.52,1.52,0,0,0,45.44,46h-1.8a.92.92,0,0,0,0-.18A4.14,4.14,0,0,0,40.83,42a9.08,9.08,0,0,0-.9-.22H39.1l-.18,0a4.11,4.11,0,0,0-3.37,3c-.1.38-.13.77-.2,1.17H33.58A1.53,1.53,0,0,0,32,47.49c-.06.94-.14,1.87-.22,2.81-.11,1.51-.23,3-.35,4.53-.11,1.33-.21,2.66-.32,4a4.9,4.9,0,0,0,.05,1.75,3.48,3.48,0,0,0,3.41,2.64h5.5c1.51,0,3,0,4.53,0A3.5,3.5,0,0,0,48,59.36Zm-10-15.86a2.69,2.69,0,0,1,3-.09A2.81,2.81,0,0,1,42.39,46H36.64A2.81,2.81,0,0,1,37.93,43.5ZM44.45,62H34.58a2.25,2.25,0,0,1-2.26-2.53c.14-1.53.25-3.07.37-4.61s.27-3.34.4-5c.06-.75.12-1.49.17-2.24,0-.25.1-.32.34-.32h1.79v1.51a.63.63,0,0,0,.64.66.62.62,0,0,0,.61-.65c0-.5,0-1,0-1.51h5.75c0,.52,0,1,0,1.53a.61.61,0,0,0,.41.59.55.55,0,0,0,.67-.18,1,1,0,0,0,.16-.48c0-.48,0-1,0-1.45l.12,0h1.67c.24,0,.32.07.33.3q.24,2.93.46,5.85t.49,6A2.24,2.24,0,0,1,44.45,62Z" transform="translate(-30.94 -41.62)"/><path class="cls-1" d="M42.28,53.34c-1,1.06-2.09,2.11-3.14,3.17a.62.62,0,0,1-1,0c-.49-.48-1-1-1.44-1.45a.63.63,0,0,1,0-.93.61.61,0,0,1,.91,0c.35.34.69.69,1,1l.74-.76,2-2a.63.63,0,1,1,.89.88Z" transform="translate(-30.94 -41.62)"/></svg>