<svg id="Layer_1" data-name="Layer 1" xmlns="http://www.w3.org/2000/svg" viewBox="0 0 13.42 17.05"><defs><style>.cls-1{fill:#384a53;}</style></defs><path class="cls-1" d="M70.27,35.5c-.09-1.18-.19-2.38-.28-3.56-.1-1.34-.22-2.67-.31-4a1.22,1.22,0,0,0-1.25-1.2H67a.66.66,0,0,1,0-.14,3.28,3.28,0,0,0-2.22-3c-.23-.09-.48-.11-.72-.18h-.66l-.14,0a3.24,3.24,0,0,0-2.68,2.4c-.08.29-.1.6-.16.91H59A1.19,1.19,0,0,0,57.77,28l-.18,2.23c-.09,1.2-.19,2.4-.28,3.6s-.17,2.11-.26,3.17a4.07,4.07,0,0,0,.05,1.39,2.75,2.75,0,0,0,2.71,2.09h4.36c1.19,0,2.39,0,3.6,0a2.77,2.77,0,0,0,2.65-3.05C70.36,36.75,70.32,36.12,70.27,35.5ZM62.46,24.78a2.14,2.14,0,0,1,2.41-.07,2.22,2.22,0,0,1,1.13,2H61.44A2.21,2.21,0,0,1,62.46,24.78Zm3.63,8L63.6,35.28a.79.79,0,0,1-.56.26.74.74,0,0,1-.55-.26c-.39-.37-.77-.76-1.15-1.14a.76.76,0,0,1,0-1.1.74.74,0,0,1,.51-.22.81.81,0,0,1,.56.26l.65.65.49-.49c.5-.51,1-1,1.5-1.52a.9.9,0,0,1,.59-.26.69.69,0,0,1,.51.23.67.67,0,0,1,.21.5A.79.79,0,0,1,66.09,32.77Z" transform="translate(-57.02 -23.39)"/></svg>