<svg id="Layer_1" data-name="Layer 1" xmlns="http://www.w3.org/2000/svg" viewBox="0 0 16.9 21.47"><path class="cls-1" d="M55,57.54c-.12-1.5-.23-3-.35-4.49-.13-1.68-.27-3.36-.4-5a1.52,1.52,0,0,0-1.57-1.51h-1.8c0-.08,0-.13,0-.18A4.14,4.14,0,0,0,48,42.5a9.08,9.08,0,0,0-.9-.22H46.3l-.18,0a4.11,4.11,0,0,0-3.37,3,11,11,0,0,0-.2,1.17H40.78A1.53,1.53,0,0,0,39.21,48c-.06.94-.14,1.87-.22,2.81l-.36,4.53c-.1,1.33-.21,2.66-.31,4a4.9,4.9,0,0,0,0,1.75,3.47,3.47,0,0,0,3.41,2.64h5.5c1.51,0,3,0,4.53,0a3.48,3.48,0,0,0,3.34-3.84C55.08,59.11,55,58.32,55,57.54ZM45.12,44a2.7,2.7,0,0,1,3-.09,2.83,2.83,0,0,1,1.44,2.56H43.84A2.83,2.83,0,0,1,45.12,44Zm6.53,18.45H41.78A2.24,2.24,0,0,1,39.52,60c.14-1.53.25-3.07.37-4.61s.26-3.34.4-5c.06-.75.11-1.49.17-2.24,0-.25.1-.32.34-.32h1.79v1.51a.63.63,0,0,0,.64.66.62.62,0,0,0,.61-.65V47.78h5.75c0,.52,0,1,0,1.53a.61.61,0,0,0,.41.59.55.55,0,0,0,.67-.18,1,1,0,0,0,.16-.48c0-.48,0-1,0-1.45l.12,0h1.67c.23,0,.31.07.33.3q.24,2.93.46,5.85t.49,6A2.25,2.25,0,0,1,51.65,62.48Z" transform="translate(-38.27 -42.28)"/><path class="cls-1" d="M49.1,52.63h0a.86.86,0,0,0-.6.28l-1.82,1.83-.17.17-.5.5-.15.16-.22-.22-.73-.74a.76.76,0,0,0-1.32.5.81.81,0,0,0,.26.56c.47.49.95,1,1.44,1.46a.74.74,0,0,0,1.13,0L49.57,54a.76.76,0,0,0,0-1.11A.74.74,0,0,0,49.1,52.63Z" transform="translate(-38.27 -42.28)"/></svg>