<svg id="Layer_1" data-name="Layer 1" xmlns="http://www.w3.org/2000/svg" viewBox="0 0 15.14 15.14"><path class="cls-1" d="M42.4,45.35A7.57,7.57,0,1,0,50,52.92,7.55,7.55,0,0,0,42.4,45.35Zm-4.92,7.56a1.15,1.15,0,0,1,1.14-1.13,1.14,1.14,0,1,1-1.14,1.13Zm3.79,0a1.14,1.14,0,1,1,1.12,1.14A1.14,1.14,0,0,1,41.27,52.91Zm3.79,0a1.13,1.13,0,0,1,1.14-1.14,1.14,1.14,0,1,1-1.14,1.14Z" transform="translate(-34.84 -45.35)"/><path class="cls-2" d="M39.75,52.92a1.14,1.14,0,1,1-2.27,0,1.15,1.15,0,0,1,1.14-1.13A1.14,1.14,0,0,1,39.75,52.92Z" transform="translate(-34.84 -45.35)"/><path class="cls-2" d="M47.33,52.91a1.14,1.14,0,1,1-1.13-1.13A1.14,1.14,0,0,1,47.33,52.91Z" transform="translate(-34.84 -45.35)"/><path class="cls-2" d="M43.54,52.93a1.14,1.14,0,1,1-1.12-1.15A1.14,1.14,0,0,1,43.54,52.93Z" transform="translate(-34.84 -45.35)"/></svg>