<svg id="Layer_1" data-name="Layer 1" xmlns="http://www.w3.org/2000/svg" viewBox="0 0 3.67 3.68"><defs><style>.cls-1{fill:#009444;}</style></defs><path class="cls-1" d="M65.38,30.08a.25.25,0,0,1,.23.27v2.46c0,.11,0,.29-.22.31h0a.25.25,0,0,1-.28-.26V31.39L65,31.26l-.15-.11-.14.11-.15.19-2.16,2.17a.5.5,0,0,1-.22.13h0a.21.21,0,0,1-.21-.11.24.24,0,0,1,0-.29l.09-.1L64.32,31l.09-.07.06-.19,0-.11-.13,0H62.87a.28.28,0,0,1-.25-.12.22.22,0,0,1,0-.22.26.26,0,0,1,.23-.17h2.56Z" transform="translate(-61.95 -30.08)"/></svg>