<svg id="Layer_1" data-name="Layer 1" xmlns="http://www.w3.org/2000/svg" viewBox="0 0 3.89 3.9"><defs><style>.cls-1{fill:#a82734;}</style></defs><path class="cls-1" d="M62.06,33.86a.27.27,0,0,1-.24-.29V31c0-.11,0-.3.23-.32h0c.2,0,.3.11.3.27v1.56l.07.14.15.12.16-.13.16-.2,2.28-2.29a.54.54,0,0,1,.24-.14h0a.22.22,0,0,1,.22.12.24.24,0,0,1,0,.3l-.1.11-2.36,2.38L63.1,33l-.07.21,0,.11.14,0h1.53a.36.36,0,0,1,.27.12.28.28,0,0,1,0,.24.26.26,0,0,1-.24.18H62.06Z" transform="translate(-61.82 -29.97)"/></svg>