<svg id="Layer_1" data-name="Layer 1" xmlns="http://www.w3.org/2000/svg" viewBox="0 0 10.44 11.88"><path class="cls-1" d="M46.14,50a3.73,3.73,0,0,0-.76-1.56,3.68,3.68,0,0,0-1.9-1.26c-.28-.08-.56-.11-.84-.17h-.47l-.53.08a3.81,3.81,0,0,0-3,3.12,3.65,3.65,0,0,0,.54,2.67c.79,1.25,1.59,2.49,2.39,3.74.18.27.35.55.53.83a.35.35,0,0,0,.61,0l0-.07c1-1.51,1.94-3,2.9-4.53A3.7,3.7,0,0,0,46.14,50ZM42.4,52.54a1.74,1.74,0,1,1,1.75-1.74A1.74,1.74,0,0,1,42.4,52.54Z" transform="translate(-37.18 -46.97)"/><path class="cls-1" d="M47.33,57.5a3.06,3.06,0,0,1-1.07.7,8.34,8.34,0,0,1-2.29.56c-.52.05-1,.08-1.31.1a12.69,12.69,0,0,1-3.36-.4,4.09,4.09,0,0,1-1.59-.75,2,2,0,0,1-.4-.47,1,1,0,0,1,.18-1.2,2.83,2.83,0,0,1,1.19-.76c.3-.11.61-.18.91-.28.08,0,.11,0,.15.06l1.67,2.61a1.14,1.14,0,0,0,.91.56,1.06,1.06,0,0,0,1-.45c.25-.35.46-.71.69-1.06.35-.55.71-1.1,1.05-1.65a.14.14,0,0,1,.18-.07,6.19,6.19,0,0,1,1.5.57,2.06,2.06,0,0,1,.68.6A1,1,0,0,1,47.33,57.5Z" transform="translate(-37.18 -46.97)"/></svg>