<svg id="Layer_1" data-name="Layer 1" xmlns="http://www.w3.org/2000/svg" viewBox="0 0 8.18 9.31"><defs><style>.cls-1{fill:#a7a9ac;}</style></defs><path class="cls-1" d="M66.7,29.6a3,3,0,0,0-2.09-2.21c-.21-.06-.44-.09-.66-.13h-.36c-.14,0-.28,0-.42.06a3,3,0,0,0-2.35,2.44,2.89,2.89,0,0,0,.42,2.1l1.88,2.92c.14.22.27.44.41.65a.27.27,0,0,0,.48,0l0,0c.75-1.18,1.52-2.36,2.27-3.54A2.94,2.94,0,0,0,66.7,29.6Zm-2.93,2a1.36,1.36,0,1,1,1.37-1.36A1.36,1.36,0,0,1,63.77,31.62Z" transform="translate(-59.68 -27.26)"/><path class="cls-1" d="M67.63,35.5a2.48,2.48,0,0,1-.84.56,6.59,6.59,0,0,1-1.79.43l-1,.08a10,10,0,0,1-2.63-.31,3.31,3.31,0,0,1-1.24-.59,1.26,1.26,0,0,1-.32-.37.8.8,0,0,1,.14-.94,2.31,2.31,0,0,1,.94-.59c.23-.09.47-.15.7-.22.07,0,.09,0,.13.05l1.3,2a.89.89,0,0,0,.71.44.84.84,0,0,0,.79-.36c.19-.27.36-.55.54-.83l.82-1.29a.11.11,0,0,1,.14-.05,4.93,4.93,0,0,1,1.18.44,1.83,1.83,0,0,1,.53.47A.79.79,0,0,1,67.63,35.5Z" transform="translate(-59.68 -27.26)"/></svg>