<svg id="Layer_1" data-name="Layer 1" xmlns="http://www.w3.org/2000/svg" viewBox="0 0 239.39 1088.13"><path class="cls-1" d="M291.78,1091.35a.7.7,0,0,0-.43-.69l-10.29-5.15a.81.81,0,0,0-.8,0q-5.11,2.57-10.22,5.11a.79.79,0,0,0-.5.83c0,1.67,0,3.35,0,5s0,3.46,0,5.19a.65.65,0,0,0,.4.65l10.32,5.16a.81.81,0,0,0,.8,0l10.28-5.14a.69.69,0,0,0,.44-.7C291.77,1098.2,291.77,1094.78,291.78,1091.35Zm-12.1-4.41a2.91,2.91,0,0,1,1-.45c.33,0,.65.29,1,.45l8.16,4.08.3.16-.17.1c-.55.28-1.11.57-1.67.83a.35.35,0,0,1-.3,0q-4.61-2.28-9.22-4.6l-.1-.06Zm4.77,8.42a.31.31,0,0,1,.13-.25c.92-.48,1.85-.94,2.78-1.41l.1,0v3.72l-.86-.61a.53.53,0,0,0-.86.15c-.38.53-.75,1.07-1.12,1.61l-.17.23v-.33C284.45,1097.41,284.44,1096.39,284.45,1095.36Zm-9.64-6,2.52-1.25a.4.4,0,0,1,.32,0l9.18,4.58.13.09-2.81,1.39a.21.21,0,0,1-.19,0l-9.26-4.63-.07,0Zm5.34,16.66v.24l-.23-.11-9.17-4.58c-.12-.06-.19-.11-.19-.26v-9.16s0-.06,0-.13l.22.09,9.18,4.59a.28.28,0,0,1,.18.3Zm.6-10.16a.36.36,0,0,1-.28,0l-7.06-3.53-2.2-1.1.13-.09c.66-.33,1.32-.67,2-1a.34.34,0,0,1,.26,0l9.22,4.61.11.07C282.17,1095.17,281.47,1095.53,280.75,1095.87Zm9.81,5.72-9.16,4.57-.23.11v-.3c0-3,0-5.93,0-8.9a.36.36,0,0,1,.24-.39c.67-.32,1.33-.66,2-1v4.63a.57.57,0,0,0,.21.52.52.52,0,0,0,.75-.2l1.76-2.53c0-.07.1-.15.18-.25l.54.38.75.53a.52.52,0,0,0,.59.08.53.53,0,0,0,.26-.52c0-1.63,0-3.27,0-4.9a.36.36,0,0,1,.24-.39c.67-.32,1.33-.66,2-1,0,.12,0,.2,0,.28,0,3,0,6,0,9A.33.33,0,0,1,290.56,1101.59Z" transform="translate(-52.51 -19.57)"/><path class="cls-2" d="M64.31,20.63a.32.32,0,0,0-.17-.05.49.49,0,0,0-.18.05l-.21.11a1.16,1.16,0,0,1,.4-.07.88.88,0,0,1,.33,0Z" transform="translate(-52.51 -19.57)"/><path class="cls-2" d="M75.76,26a1.21,1.21,0,0,0-.7-1.14q-5.16-2.56-10.3-5.15a1.29,1.29,0,0,0-1.25,0q-5.1,2.57-10.21,5.1a1.31,1.31,0,0,0-.79,1.29c0,1.21,0,2.43,0,3.64v6.55a1.17,1.17,0,0,0,.68,1.11l10.32,5.16a1.39,1.39,0,0,0,.62.16,1.54,1.54,0,0,0,.63-.16Q69.9,40,75,37.45a1.2,1.2,0,0,0,.72-1.15c0-1.72,0-3.43,0-5.14S75.76,27.74,75.76,26Zm-7.34,5.84c0-.57,0-1.14,0-1.71.67-.35,1.34-.68,2-1v2L70.36,31a1,1,0,0,0-1.56.27Zm-5.05-9.8h0l.32-.18a1.32,1.32,0,0,1,.45-.21,1.2,1.2,0,0,1,.42.2l.33.19,7.6,3.8-.91.45-7.93-4-.43-.22ZM64,20.63a.49.49,0,0,1,.18-.05.32.32,0,0,1,.17.05l.17.09a.88.88,0,0,0-.33,0,1.16,1.16,0,0,0-.4.07Zm-3,2.63,7.63,3.81.73.37-1.79.89-8.3-4.15-.06,0Zm2.15,16.88-8.59-4.3V27.49l1.64.81,7,3.48Zm1-10.11c-2-1-3.93-2-5.89-2.94l-2.47-1.23,1.16-.58c2.77,1.38,5.54,2.76,8.35,4.18Zm2.35,9.44-1.34.67v-1c0-2.42,0-4.85,0-7.31.43-.2.85-.41,1.28-.63V35a1.06,1.06,0,0,0,.43.93,1,1,0,0,0,1.44-.32l1.65-2.37.87.62a1,1,0,0,0,1.13.11,1,1,0,0,0,.52-1V28.12l1.27-.63v8.36Z" transform="translate(-52.51 -19.57)"/></svg>