<svg id="Layer_1" data-name="Layer 1" xmlns="http://www.w3.org/2000/svg" viewBox="0 0 16.17 16.76"><defs><style>.cls-1{fill:#384a53;}</style></defs><path class="cls-1" d="M1735.68,3451.38a4.66,4.66,0,0,0-3.43-1.51h-5.48a4.69,4.69,0,0,0-3.45,1.51l-1.9,2.08v9.43a3.74,3.74,0,0,0,3.74,3.74h8.69a3.74,3.74,0,0,0,3.73-3.74v-9.43Zm-2,5.72c0,3-2.11,4.62-4.17,4.62-1.89,0-4-1.38-4.2-4.42a.86.86,0,0,1,.22-.59.81.81,0,0,1,.59-.24.74.74,0,0,1,.73.58,2.87,2.87,0,0,0,2.7,3c1,0,2.34-.7,2.55-2.7a.93.93,0,0,1,.24-.65.82.82,0,0,1,.6-.27.75.75,0,0,1,.71.52l0,.07Zm-10.45-4,.92-1a3.52,3.52,0,0,1,2.64-1.16h5.48a3.55,3.55,0,0,1,2.63,1.16l.91,1Z" transform="translate(-1721.42 -3449.87)"/></svg>