<svg id="Layer_1" data-name="Layer 1" xmlns="http://www.w3.org/2000/svg" viewBox="0 0 15.85 15.84"><defs><style>.cls-1{fill:#0a2c34;}.cls-2{fill:#fff;}</style></defs><path class="cls-1" d="M44.21,45.16a8.27,8.27,0,0,0-1.39-.25s-.07,0-.08,0h-1.3a2.35,2.35,0,0,1-.53.09A7.91,7.91,0,0,0,34.23,52s0,.08,0,.1v1.33a1.88,1.88,0,0,1,.08.52,7.88,7.88,0,0,0,2.32,4.51,7.56,7.56,0,0,0,4.45,2.16,7.93,7.93,0,0,0,8.89-6.57A8,8,0,0,0,44.21,45.16Zm2.21,5.55L41,56.15s0,.07-.1.07l-.07,0-3-3c-.08-.07-.07-.11,0-.18l1.11-1.08c.07-.08.11-.06.18,0,.55.54,1.1,1.08,1.64,1.63.1.1.15.1.25,0l4.11-4.12c.09-.09.14-.09.23,0,.35.36.71.72,1.08,1.07C46.49,50.6,46.49,50.64,46.42,50.71Z" transform="translate(-34.2 -44.88)"/><path class="cls-2" d="M40.87,56.22l-.07,0-3-3c-.08-.07-.07-.11,0-.18l1.11-1.08c.07-.08.11-.06.18,0,.55.54,1.1,1.08,1.64,1.63.1.1.15.1.25,0l4.11-4.12c.09-.09.14-.09.23,0,.35.36.71.72,1.08,1.07.07.07.07.11,0,.18L41,56.15S40.92,56.22,40.87,56.22Z" transform="translate(-34.2 -44.88)"/></svg>