<svg id="Layer_1" data-name="Layer 1" xmlns="http://www.w3.org/2000/svg" viewBox="0 0 11.03 11.03"><defs><style>.cls-1{fill:#fff;}</style></defs><path class="cls-1" d="M69.07,36.5l-2.91-2.91-.1-.08.12-.17a4.19,4.19,0,0,0,.8-1.86,4.39,4.39,0,0,0-3.65-5L63,26.39h-.58l-.26,0a4.25,4.25,0,0,0-3.06,1.89,4.14,4.14,0,0,0-.71,3,4.38,4.38,0,0,0,4.8,3.77,4.19,4.19,0,0,0,2.09-.82l.19-.13.09.11,3,3,.13.12a.44.44,0,0,0,.47,0,.51.51,0,0,0,.25-.31v-.2C69.25,36.74,69.17,36.61,69.07,36.5Zm-6.4-2.3a3.45,3.45,0,1,1,3.45-3.44A3.45,3.45,0,0,1,62.67,34.2Z" transform="translate(-58.31 -26.39)"/></svg>