<svg id="Layer_1" data-name="Layer 1" xmlns="http://www.w3.org/2000/svg" viewBox="0 0 17.38 17.38"><defs><style>.cls-1{fill:#fff;}</style></defs><path class="cls-1" d="M81.89,60.14q-2.28-2.3-4.58-4.58a1.09,1.09,0,0,0-.17-.13l.2-.26a6.85,6.85,0,0,0-.43-8.68,6.75,6.75,0,0,0-4.06-2.21l-.58-.08h-.92l-.42.07a6.75,6.75,0,0,0-4.82,3A6.59,6.59,0,0,0,65,52a6.85,6.85,0,0,0,10.86,4.65l.29-.21.15.18L81,61.26a1.62,1.62,0,0,0,.2.18.7.7,0,0,0,.76.06.88.88,0,0,0,.38-.49V60.7A5.84,5.84,0,0,0,81.89,60.14ZM71.81,56.52a5.43,5.43,0,1,1,5.43-5.43A5.46,5.46,0,0,1,71.81,56.52Z" transform="translate(-64.93 -44.2)"/></svg>